<mxfile>
    <diagram id="DQStbxsAOq7NAe4iCkHE" name="getitem">
        <mxGraphModel dx="1282" dy="622" grid="1" gridSize="10" guides="1" tooltips="1" connect="1" arrows="1" fold="1" page="1" pageScale="1" pageWidth="850" pageHeight="1100" background="#4D4D4D" math="0" shadow="0">
            <root>
                <mxCell id="0"/>
                <mxCell id="1" parent="0"/>
                <mxCell id="68" value="" style="edgeStyle=orthogonalEdgeStyle;rounded=0;orthogonalLoop=1;jettySize=auto;html=1;fontColor=#000000;" edge="1" parent="1" source="62" target="64">
                    <mxGeometry relative="1" as="geometry"/>
                </mxCell>
                <mxCell id="62" value="&lt;font color=&quot;#000000&quot;&gt;START&lt;/font&gt;" style="ellipse;whiteSpace=wrap;html=1;fillColor=#f9f7ed;strokeColor=#36393d;" vertex="1" parent="1">
                    <mxGeometry x="340" y="40" width="120" height="80" as="geometry"/>
                </mxCell>
                <mxCell id="63" value="&lt;font color=&quot;#000000&quot;&gt;END&lt;/font&gt;" style="ellipse;whiteSpace=wrap;html=1;fillColor=#f9f7ed;strokeColor=#36393d;" vertex="1" parent="1">
                    <mxGeometry x="340" y="530" width="120" height="80" as="geometry"/>
                </mxCell>
                <mxCell id="69" value="" style="edgeStyle=orthogonalEdgeStyle;rounded=0;orthogonalLoop=1;jettySize=auto;html=1;fontColor=#000000;" edge="1" parent="1" source="64" target="65">
                    <mxGeometry relative="1" as="geometry"/>
                </mxCell>
                <mxCell id="64" value="result = []" style="rounded=0;whiteSpace=wrap;html=1;fillColor=#f9f7ed;strokeColor=#36393d;fontColor=#000000;" vertex="1" parent="1">
                    <mxGeometry x="340" y="160" width="120" height="60" as="geometry"/>
                </mxCell>
                <mxCell id="67" style="edgeStyle=orthogonalEdgeStyle;rounded=0;orthogonalLoop=1;jettySize=auto;html=1;exitX=0;exitY=0.5;exitDx=0;exitDy=0;fontColor=#000000;" edge="1" parent="1" source="65" target="66">
                    <mxGeometry relative="1" as="geometry"/>
                </mxCell>
                <mxCell id="71" value="" style="edgeStyle=orthogonalEdgeStyle;rounded=0;orthogonalLoop=1;jettySize=auto;html=1;fontColor=#000000;" edge="1" parent="1" source="65" target="70">
                    <mxGeometry relative="1" as="geometry"/>
                </mxCell>
                <mxCell id="65" value="model: getItem" style="rounded=0;whiteSpace=wrap;html=1;fillColor=#f9f7ed;strokeColor=#36393d;fontColor=#000000;" vertex="1" parent="1">
                    <mxGeometry x="340" y="250" width="120" height="60" as="geometry"/>
                </mxCell>
                <mxCell id="66" value="DB" style="shape=cylinder3;whiteSpace=wrap;html=1;boundedLbl=1;backgroundOutline=1;size=15;fillColor=#f9f7ed;strokeColor=#36393d;fontColor=#000000;" vertex="1" parent="1">
                    <mxGeometry x="130" y="245" width="90" height="70" as="geometry"/>
                </mxCell>
                <mxCell id="75" value="&lt;font color=&quot;#ffffff&quot;&gt;FALSE&lt;/font&gt;" style="edgeStyle=orthogonalEdgeStyle;rounded=0;orthogonalLoop=1;jettySize=auto;html=1;exitX=1;exitY=0.5;exitDx=0;exitDy=0;entryX=0.5;entryY=0;entryDx=0;entryDy=0;fontColor=#000000;" edge="1" parent="1" source="70" target="72">
                    <mxGeometry x="-0.1795" relative="1" as="geometry">
                        <mxPoint as="offset"/>
                    </mxGeometry>
                </mxCell>
                <mxCell id="76" value="&lt;font color=&quot;#ffffff&quot;&gt;TRUE&lt;/font&gt;" style="edgeStyle=orthogonalEdgeStyle;rounded=0;orthogonalLoop=1;jettySize=auto;html=1;fontColor=#000000;" edge="1" parent="1" source="70" target="73">
                    <mxGeometry x="-0.174" relative="1" as="geometry">
                        <mxPoint as="offset"/>
                    </mxGeometry>
                </mxCell>
                <mxCell id="70" value="no error" style="rhombus;whiteSpace=wrap;html=1;fillColor=#f9f7ed;strokeColor=#36393d;fontColor=#000000;" vertex="1" parent="1">
                    <mxGeometry x="360" y="350" width="80" height="80" as="geometry"/>
                </mxCell>
                <mxCell id="79" style="edgeStyle=orthogonalEdgeStyle;rounded=0;orthogonalLoop=1;jettySize=auto;html=1;exitX=0.5;exitY=1;exitDx=0;exitDy=0;entryX=1;entryY=0.5;entryDx=0;entryDy=0;fontColor=#000000;" edge="1" parent="1" source="72" target="63">
                    <mxGeometry relative="1" as="geometry"/>
                </mxCell>
                <mxCell id="72" value="&quot;message: An error&lt;br&gt;occurred&quot;" style="shape=parallelogram;perimeter=parallelogramPerimeter;whiteSpace=wrap;html=1;fixedSize=1;fillColor=#f9f7ed;strokeColor=#36393d;fontColor=#000000;" vertex="1" parent="1">
                    <mxGeometry x="520" y="430" width="150" height="60" as="geometry"/>
                </mxCell>
                <mxCell id="9wYVyqHYTNYkQ9L58s6s-79" style="edgeStyle=orthogonalEdgeStyle;rounded=0;orthogonalLoop=1;jettySize=auto;html=1;exitX=0.5;exitY=1;exitDx=0;exitDy=0;entryX=0;entryY=0.5;entryDx=0;entryDy=0;fontColor=#000000;" edge="1" parent="1" source="73" target="63">
                    <mxGeometry relative="1" as="geometry"/>
                </mxCell>
                <mxCell id="73" value="&quot;message: List of product&quot;,&lt;br&gt;result" style="shape=parallelogram;perimeter=parallelogramPerimeter;whiteSpace=wrap;html=1;fixedSize=1;fillColor=#f9f7ed;strokeColor=#36393d;fontColor=#000000;" vertex="1" parent="1">
                    <mxGeometry x="130" y="440" width="172.5" height="70" as="geometry"/>
                </mxCell>
            </root>
        </mxGraphModel>
    </diagram>
    <diagram id="4Bp7xtvQxrjr8NO-JlBp" name="get item by condition">
        <mxGraphModel dx="1282" dy="622" grid="1" gridSize="10" guides="1" tooltips="1" connect="1" arrows="1" fold="1" page="1" pageScale="1" pageWidth="850" pageHeight="1100" background="#4D4D4D" math="0" shadow="0">
            <root>
                <mxCell id="CaPVfq18Ho21oDsXogwJ-0"/>
                <mxCell id="CaPVfq18Ho21oDsXogwJ-1" parent="CaPVfq18Ho21oDsXogwJ-0"/>
                <mxCell id="auDElhBBxZdgH1ReL2WP-0" value="" style="edgeStyle=orthogonalEdgeStyle;rounded=0;orthogonalLoop=1;jettySize=auto;html=1;fontColor=#000000;" edge="1" parent="CaPVfq18Ho21oDsXogwJ-1" source="auDElhBBxZdgH1ReL2WP-1" target="auDElhBBxZdgH1ReL2WP-4">
                    <mxGeometry relative="1" as="geometry"/>
                </mxCell>
                <mxCell id="auDElhBBxZdgH1ReL2WP-1" value="&lt;font color=&quot;#000000&quot;&gt;START&lt;/font&gt;" style="ellipse;whiteSpace=wrap;html=1;fillColor=#f9f7ed;strokeColor=#36393d;" vertex="1" parent="CaPVfq18Ho21oDsXogwJ-1">
                    <mxGeometry x="340" y="40" width="120" height="80" as="geometry"/>
                </mxCell>
                <mxCell id="auDElhBBxZdgH1ReL2WP-2" value="&lt;font color=&quot;#000000&quot;&gt;END&lt;/font&gt;" style="ellipse;whiteSpace=wrap;html=1;fillColor=#f9f7ed;strokeColor=#36393d;" vertex="1" parent="CaPVfq18Ho21oDsXogwJ-1">
                    <mxGeometry x="346.25" y="880" width="120" height="80" as="geometry"/>
                </mxCell>
                <mxCell id="DsI1MIe4s17hEiOmMGgA-1" value="" style="edgeStyle=orthogonalEdgeStyle;rounded=0;orthogonalLoop=1;jettySize=auto;html=1;fontColor=#000000;" edge="1" parent="CaPVfq18Ho21oDsXogwJ-1" source="auDElhBBxZdgH1ReL2WP-4" target="DsI1MIe4s17hEiOmMGgA-0">
                    <mxGeometry relative="1" as="geometry"/>
                </mxCell>
                <mxCell id="auDElhBBxZdgH1ReL2WP-4" value="cond = id&lt;br&gt;result = []" style="rounded=0;whiteSpace=wrap;html=1;fillColor=#f9f7ed;strokeColor=#36393d;fontColor=#000000;" vertex="1" parent="CaPVfq18Ho21oDsXogwJ-1">
                    <mxGeometry x="340" y="160" width="120" height="60" as="geometry"/>
                </mxCell>
                <mxCell id="rmZ2pD7SCtyE_wrunC86-0" value="" style="edgeStyle=orthogonalEdgeStyle;rounded=0;orthogonalLoop=1;jettySize=auto;html=1;fontColor=#000000;" edge="1" parent="CaPVfq18Ho21oDsXogwJ-1" source="auDElhBBxZdgH1ReL2WP-7" target="auDElhBBxZdgH1ReL2WP-9">
                    <mxGeometry relative="1" as="geometry"/>
                </mxCell>
                <mxCell id="DsI1MIe4s17hEiOmMGgA-4" value="" style="edgeStyle=orthogonalEdgeStyle;rounded=0;orthogonalLoop=1;jettySize=auto;html=1;fontColor=#000000;" edge="1" parent="CaPVfq18Ho21oDsXogwJ-1" source="auDElhBBxZdgH1ReL2WP-7" target="auDElhBBxZdgH1ReL2WP-12">
                    <mxGeometry relative="1" as="geometry"/>
                </mxCell>
                <mxCell id="auDElhBBxZdgH1ReL2WP-7" value="model: getItemByCondition" style="rounded=0;whiteSpace=wrap;html=1;fillColor=#f9f7ed;strokeColor=#36393d;fontColor=#000000;" vertex="1" parent="CaPVfq18Ho21oDsXogwJ-1">
                    <mxGeometry x="490" y="430" width="120" height="60" as="geometry"/>
                </mxCell>
                <mxCell id="auDElhBBxZdgH1ReL2WP-9" value="DB" style="shape=cylinder3;whiteSpace=wrap;html=1;boundedLbl=1;backgroundOutline=1;size=15;fillColor=#f9f7ed;strokeColor=#36393d;fontColor=#000000;" vertex="1" parent="CaPVfq18Ho21oDsXogwJ-1">
                    <mxGeometry x="680" y="425" width="90" height="70" as="geometry"/>
                </mxCell>
                <mxCell id="1xJ8UVtl_48-z1OdyyYy-8" style="edgeStyle=orthogonalEdgeStyle;rounded=0;orthogonalLoop=1;jettySize=auto;html=1;exitX=0;exitY=0.5;exitDx=0;exitDy=0;entryX=1;entryY=0.5;entryDx=0;entryDy=0;labelBackgroundColor=none;fontColor=#000000;" edge="1" parent="CaPVfq18Ho21oDsXogwJ-1" source="auDElhBBxZdgH1ReL2WP-12" target="rmZ2pD7SCtyE_wrunC86-1">
                    <mxGeometry relative="1" as="geometry"/>
                </mxCell>
                <mxCell id="1xJ8UVtl_48-z1OdyyYy-9" style="edgeStyle=orthogonalEdgeStyle;rounded=0;orthogonalLoop=1;jettySize=auto;html=1;exitX=0.5;exitY=1;exitDx=0;exitDy=0;entryX=0.5;entryY=0;entryDx=0;entryDy=0;labelBackgroundColor=none;fontColor=#000000;" edge="1" parent="CaPVfq18Ho21oDsXogwJ-1" source="auDElhBBxZdgH1ReL2WP-12" target="tZ8c-H63WmaaSCTw9SX7-2">
                    <mxGeometry relative="1" as="geometry"/>
                </mxCell>
                <mxCell id="auDElhBBxZdgH1ReL2WP-12" value="no error" style="rhombus;whiteSpace=wrap;html=1;fillColor=#f9f7ed;strokeColor=#36393d;fontColor=#000000;" vertex="1" parent="CaPVfq18Ho21oDsXogwJ-1">
                    <mxGeometry x="510" y="520" width="80" height="80" as="geometry"/>
                </mxCell>
                <mxCell id="auDElhBBxZdgH1ReL2WP-20" style="edgeStyle=orthogonalEdgeStyle;rounded=0;orthogonalLoop=1;jettySize=auto;html=1;exitX=1;exitY=0.5;exitDx=0;exitDy=0;entryX=0.5;entryY=0;entryDx=0;entryDy=0;fontColor=#000000;" edge="1" parent="CaPVfq18Ho21oDsXogwJ-1" source="auDElhBBxZdgH1ReL2WP-17" target="auDElhBBxZdgH1ReL2WP-7">
                    <mxGeometry relative="1" as="geometry"/>
                </mxCell>
                <mxCell id="rmZ2pD7SCtyE_wrunC86-2" style="edgeStyle=orthogonalEdgeStyle;rounded=0;orthogonalLoop=1;jettySize=auto;html=1;entryX=0.5;entryY=0;entryDx=0;entryDy=0;fontColor=#000000;" edge="1" parent="CaPVfq18Ho21oDsXogwJ-1" source="auDElhBBxZdgH1ReL2WP-17" target="rmZ2pD7SCtyE_wrunC86-1">
                    <mxGeometry relative="1" as="geometry"/>
                </mxCell>
                <mxCell id="auDElhBBxZdgH1ReL2WP-17" value="cond" style="rhombus;whiteSpace=wrap;html=1;fillColor=#f9f7ed;strokeColor=#36393d;fontColor=#000000;" vertex="1" parent="CaPVfq18Ho21oDsXogwJ-1">
                    <mxGeometry x="360" y="360" width="80" height="80" as="geometry"/>
                </mxCell>
                <mxCell id="1xJ8UVtl_48-z1OdyyYy-4" style="edgeStyle=orthogonalEdgeStyle;rounded=0;orthogonalLoop=1;jettySize=auto;html=1;entryX=0;entryY=0.5;entryDx=0;entryDy=0;fontColor=#000000;" edge="1" parent="CaPVfq18Ho21oDsXogwJ-1" source="rmZ2pD7SCtyE_wrunC86-1" target="auDElhBBxZdgH1ReL2WP-2">
                    <mxGeometry relative="1" as="geometry">
                        <Array as="points">
                            <mxPoint x="250" y="920"/>
                        </Array>
                    </mxGeometry>
                </mxCell>
                <mxCell id="rmZ2pD7SCtyE_wrunC86-1" value="&quot;message: An error&lt;br&gt;occurred&quot;" style="shape=parallelogram;perimeter=parallelogramPerimeter;whiteSpace=wrap;html=1;fixedSize=1;fillColor=#f9f7ed;strokeColor=#36393d;fontColor=#000000;" vertex="1" parent="CaPVfq18Ho21oDsXogwJ-1">
                    <mxGeometry x="175" y="530" width="150" height="60" as="geometry"/>
                </mxCell>
                <mxCell id="DsI1MIe4s17hEiOmMGgA-2" value="" style="edgeStyle=orthogonalEdgeStyle;rounded=0;orthogonalLoop=1;jettySize=auto;html=1;fontColor=#000000;" edge="1" parent="CaPVfq18Ho21oDsXogwJ-1" source="DsI1MIe4s17hEiOmMGgA-0" target="auDElhBBxZdgH1ReL2WP-17">
                    <mxGeometry relative="1" as="geometry"/>
                </mxCell>
                <mxCell id="DsI1MIe4s17hEiOmMGgA-0" value="input id" style="shape=parallelogram;perimeter=parallelogramPerimeter;whiteSpace=wrap;html=1;fixedSize=1;fillColor=#f9f7ed;strokeColor=#36393d;fontColor=#000000;" vertex="1" parent="CaPVfq18Ho21oDsXogwJ-1">
                    <mxGeometry x="325" y="260" width="150" height="60" as="geometry"/>
                </mxCell>
                <mxCell id="tZ8c-H63WmaaSCTw9SX7-5" style="edgeStyle=orthogonalEdgeStyle;rounded=0;orthogonalLoop=1;jettySize=auto;html=1;exitX=1;exitY=0.5;exitDx=0;exitDy=0;entryX=0.5;entryY=0;entryDx=0;entryDy=0;fontColor=#000000;" edge="1" parent="CaPVfq18Ho21oDsXogwJ-1" source="tZ8c-H63WmaaSCTw9SX7-2" target="tZ8c-H63WmaaSCTw9SX7-4">
                    <mxGeometry relative="1" as="geometry"/>
                </mxCell>
                <mxCell id="tZ8c-H63WmaaSCTw9SX7-7" style="edgeStyle=orthogonalEdgeStyle;rounded=0;orthogonalLoop=1;jettySize=auto;html=1;exitX=0;exitY=0.5;exitDx=0;exitDy=0;entryX=0.5;entryY=0;entryDx=0;entryDy=0;fontColor=#000000;" edge="1" parent="CaPVfq18Ho21oDsXogwJ-1" source="tZ8c-H63WmaaSCTw9SX7-2" target="tZ8c-H63WmaaSCTw9SX7-6">
                    <mxGeometry relative="1" as="geometry"/>
                </mxCell>
                <mxCell id="tZ8c-H63WmaaSCTw9SX7-2" value="result length&lt;br&gt;&amp;gt; 0" style="rhombus;whiteSpace=wrap;html=1;fillColor=#f9f7ed;strokeColor=#36393d;fontColor=#000000;" vertex="1" parent="CaPVfq18Ho21oDsXogwJ-1">
                    <mxGeometry x="505" y="640" width="90" height="90" as="geometry"/>
                </mxCell>
                <mxCell id="1xJ8UVtl_48-z1OdyyYy-5" style="edgeStyle=orthogonalEdgeStyle;rounded=0;orthogonalLoop=1;jettySize=auto;html=1;exitX=0.5;exitY=1;exitDx=0;exitDy=0;entryX=1;entryY=0.5;entryDx=0;entryDy=0;fontColor=#000000;" edge="1" parent="CaPVfq18Ho21oDsXogwJ-1" source="tZ8c-H63WmaaSCTw9SX7-4" target="auDElhBBxZdgH1ReL2WP-2">
                    <mxGeometry relative="1" as="geometry"/>
                </mxCell>
                <mxCell id="tZ8c-H63WmaaSCTw9SX7-4" value="&quot;message: Item not &lt;br&gt;found&quot;" style="shape=parallelogram;perimeter=parallelogramPerimeter;whiteSpace=wrap;html=1;fixedSize=1;fillColor=#f9f7ed;strokeColor=#36393d;fontColor=#000000;" vertex="1" parent="CaPVfq18Ho21oDsXogwJ-1">
                    <mxGeometry x="607.5" y="730" width="150" height="60" as="geometry"/>
                </mxCell>
                <mxCell id="1xJ8UVtl_48-z1OdyyYy-3" style="edgeStyle=orthogonalEdgeStyle;rounded=0;orthogonalLoop=1;jettySize=auto;html=1;exitX=0.5;exitY=1;exitDx=0;exitDy=0;fontColor=#000000;" edge="1" parent="CaPVfq18Ho21oDsXogwJ-1" source="tZ8c-H63WmaaSCTw9SX7-6" target="auDElhBBxZdgH1ReL2WP-2">
                    <mxGeometry relative="1" as="geometry"/>
                </mxCell>
                <mxCell id="tZ8c-H63WmaaSCTw9SX7-6" value="&quot;message: List of product&quot;,&lt;br&gt;result" style="shape=parallelogram;perimeter=parallelogramPerimeter;whiteSpace=wrap;html=1;fixedSize=1;fillColor=#f9f7ed;strokeColor=#36393d;fontColor=#000000;" vertex="1" parent="CaPVfq18Ho21oDsXogwJ-1">
                    <mxGeometry x="320" y="730" width="172.5" height="70" as="geometry"/>
                </mxCell>
                <mxCell id="1xJ8UVtl_48-z1OdyyYy-10" value="&lt;font color=&quot;#ffffff&quot;&gt;TRUE&lt;/font&gt;" style="text;html=1;strokeColor=none;fillColor=none;align=center;verticalAlign=middle;whiteSpace=wrap;rounded=0;fontColor=#000000;" vertex="1" parent="CaPVfq18Ho21oDsXogwJ-1">
                    <mxGeometry x="555" y="610" width="40" height="20" as="geometry"/>
                </mxCell>
                <mxCell id="1xJ8UVtl_48-z1OdyyYy-11" value="&lt;font color=&quot;#ffffff&quot;&gt;FALSE&lt;/font&gt;" style="text;html=1;strokeColor=none;fillColor=none;align=center;verticalAlign=middle;whiteSpace=wrap;rounded=0;fontColor=#000000;" vertex="1" parent="CaPVfq18Ho21oDsXogwJ-1">
                    <mxGeometry x="400" y="530" width="40" height="20" as="geometry"/>
                </mxCell>
                <mxCell id="1xJ8UVtl_48-z1OdyyYy-12" value="&lt;font color=&quot;#ffffff&quot;&gt;FALSE&lt;/font&gt;" style="text;html=1;strokeColor=none;fillColor=none;align=center;verticalAlign=middle;whiteSpace=wrap;rounded=0;fontColor=#000000;" vertex="1" parent="CaPVfq18Ho21oDsXogwJ-1">
                    <mxGeometry x="620" y="660" width="40" height="20" as="geometry"/>
                </mxCell>
                <mxCell id="1xJ8UVtl_48-z1OdyyYy-13" value="&lt;font color=&quot;#ffffff&quot;&gt;TRUE&lt;/font&gt;" style="text;html=1;strokeColor=none;fillColor=none;align=center;verticalAlign=middle;whiteSpace=wrap;rounded=0;fontColor=#000000;" vertex="1" parent="CaPVfq18Ho21oDsXogwJ-1">
                    <mxGeometry x="420" y="660" width="40" height="20" as="geometry"/>
                </mxCell>
                <mxCell id="7mjs1qWopACLMtQP43Tb-0" value="&lt;font color=&quot;#ffffff&quot;&gt;FALSE&lt;/font&gt;" style="text;html=1;strokeColor=none;fillColor=none;align=center;verticalAlign=middle;whiteSpace=wrap;rounded=0;fontColor=#000000;" vertex="1" parent="CaPVfq18Ho21oDsXogwJ-1">
                    <mxGeometry x="285" y="380" width="40" height="20" as="geometry"/>
                </mxCell>
                <mxCell id="7mjs1qWopACLMtQP43Tb-1" value="&lt;font color=&quot;#ffffff&quot;&gt;TRUE&lt;/font&gt;" style="text;html=1;strokeColor=none;fillColor=none;align=center;verticalAlign=middle;whiteSpace=wrap;rounded=0;fontColor=#000000;" vertex="1" parent="CaPVfq18Ho21oDsXogwJ-1">
                    <mxGeometry x="465" y="380" width="40" height="20" as="geometry"/>
                </mxCell>
            </root>
        </mxGraphModel>
    </diagram>
    <diagram id="Rv-bwrt3qZtbvg3RF5Be" name="create item">
        <mxGraphModel dx="1282" dy="622" grid="1" gridSize="10" guides="1" tooltips="1" connect="1" arrows="1" fold="1" page="1" pageScale="1" pageWidth="850" pageHeight="1100" background="#4D4D4D" math="0" shadow="0">
            <root>
                <mxCell id="e_fR3UxcFMRkPrCtHw8A-0"/>
                <mxCell id="e_fR3UxcFMRkPrCtHw8A-1" parent="e_fR3UxcFMRkPrCtHw8A-0"/>
                <mxCell id="AWZ0zkVUvCy7FH7u7wOK-4" value="" style="edgeStyle=orthogonalEdgeStyle;rounded=0;orthogonalLoop=1;jettySize=auto;html=1;labelBackgroundColor=none;fontColor=#000000;" edge="1" parent="e_fR3UxcFMRkPrCtHw8A-1" source="e_fR3UxcFMRkPrCtHw8A-3" target="AWZ0zkVUvCy7FH7u7wOK-1">
                    <mxGeometry relative="1" as="geometry"/>
                </mxCell>
                <mxCell id="e_fR3UxcFMRkPrCtHw8A-3" value="&lt;font color=&quot;#000000&quot;&gt;START&lt;/font&gt;" style="ellipse;whiteSpace=wrap;html=1;fillColor=#f9f7ed;strokeColor=#36393d;" vertex="1" parent="e_fR3UxcFMRkPrCtHw8A-1">
                    <mxGeometry x="340" y="70" width="120" height="80" as="geometry"/>
                </mxCell>
                <mxCell id="e_fR3UxcFMRkPrCtHw8A-4" value="&lt;font color=&quot;#000000&quot;&gt;END&lt;/font&gt;" style="ellipse;whiteSpace=wrap;html=1;fillColor=#f9f7ed;strokeColor=#36393d;" vertex="1" parent="e_fR3UxcFMRkPrCtHw8A-1">
                    <mxGeometry x="340" y="575" width="120" height="80" as="geometry"/>
                </mxCell>
                <mxCell id="e_fR3UxcFMRkPrCtHw8A-7" style="edgeStyle=orthogonalEdgeStyle;rounded=0;orthogonalLoop=1;jettySize=auto;html=1;exitX=0;exitY=0.5;exitDx=0;exitDy=0;fontColor=#000000;" edge="1" parent="e_fR3UxcFMRkPrCtHw8A-1" source="e_fR3UxcFMRkPrCtHw8A-9" target="e_fR3UxcFMRkPrCtHw8A-10">
                    <mxGeometry relative="1" as="geometry"/>
                </mxCell>
                <mxCell id="e_fR3UxcFMRkPrCtHw8A-8" value="" style="edgeStyle=orthogonalEdgeStyle;rounded=0;orthogonalLoop=1;jettySize=auto;html=1;fontColor=#000000;" edge="1" parent="e_fR3UxcFMRkPrCtHw8A-1" source="e_fR3UxcFMRkPrCtHw8A-9" target="e_fR3UxcFMRkPrCtHw8A-13">
                    <mxGeometry relative="1" as="geometry"/>
                </mxCell>
                <mxCell id="e_fR3UxcFMRkPrCtHw8A-9" value="model: createItem" style="rounded=0;whiteSpace=wrap;html=1;fillColor=#f9f7ed;strokeColor=#36393d;fontColor=#000000;" vertex="1" parent="e_fR3UxcFMRkPrCtHw8A-1">
                    <mxGeometry x="340" y="295" width="120" height="60" as="geometry"/>
                </mxCell>
                <mxCell id="e_fR3UxcFMRkPrCtHw8A-10" value="DB" style="shape=cylinder3;whiteSpace=wrap;html=1;boundedLbl=1;backgroundOutline=1;size=15;fillColor=#f9f7ed;strokeColor=#36393d;fontColor=#000000;" vertex="1" parent="e_fR3UxcFMRkPrCtHw8A-1">
                    <mxGeometry x="130" y="290" width="90" height="70" as="geometry"/>
                </mxCell>
                <mxCell id="e_fR3UxcFMRkPrCtHw8A-11" value="" style="edgeStyle=orthogonalEdgeStyle;rounded=0;orthogonalLoop=1;jettySize=auto;html=1;exitX=1;exitY=0.5;exitDx=0;exitDy=0;entryX=0.5;entryY=0;entryDx=0;entryDy=0;fontColor=#000000;" edge="1" parent="e_fR3UxcFMRkPrCtHw8A-1" source="e_fR3UxcFMRkPrCtHw8A-13" target="e_fR3UxcFMRkPrCtHw8A-15">
                    <mxGeometry x="-0.1795" y="25" relative="1" as="geometry">
                        <mxPoint as="offset"/>
                    </mxGeometry>
                </mxCell>
                <mxCell id="e_fR3UxcFMRkPrCtHw8A-12" value="" style="edgeStyle=orthogonalEdgeStyle;rounded=0;orthogonalLoop=1;jettySize=auto;html=1;fontColor=#000000;" edge="1" parent="e_fR3UxcFMRkPrCtHw8A-1" source="e_fR3UxcFMRkPrCtHw8A-13" target="e_fR3UxcFMRkPrCtHw8A-17">
                    <mxGeometry x="-0.174" y="-25" relative="1" as="geometry">
                        <mxPoint as="offset"/>
                    </mxGeometry>
                </mxCell>
                <mxCell id="e_fR3UxcFMRkPrCtHw8A-13" value="no error" style="rhombus;whiteSpace=wrap;html=1;fillColor=#f9f7ed;strokeColor=#36393d;fontColor=#000000;" vertex="1" parent="e_fR3UxcFMRkPrCtHw8A-1">
                    <mxGeometry x="360" y="395" width="80" height="80" as="geometry"/>
                </mxCell>
                <mxCell id="e_fR3UxcFMRkPrCtHw8A-14" style="edgeStyle=orthogonalEdgeStyle;rounded=0;orthogonalLoop=1;jettySize=auto;html=1;exitX=0.5;exitY=1;exitDx=0;exitDy=0;entryX=1;entryY=0.5;entryDx=0;entryDy=0;fontColor=#000000;" edge="1" parent="e_fR3UxcFMRkPrCtHw8A-1" source="e_fR3UxcFMRkPrCtHw8A-15" target="e_fR3UxcFMRkPrCtHw8A-4">
                    <mxGeometry relative="1" as="geometry"/>
                </mxCell>
                <mxCell id="e_fR3UxcFMRkPrCtHw8A-15" value="&quot;message: An error&lt;br&gt;occurred&quot;" style="shape=parallelogram;perimeter=parallelogramPerimeter;whiteSpace=wrap;html=1;fixedSize=1;fillColor=#f9f7ed;strokeColor=#36393d;fontColor=#000000;" vertex="1" parent="e_fR3UxcFMRkPrCtHw8A-1">
                    <mxGeometry x="520" y="475" width="150" height="60" as="geometry"/>
                </mxCell>
                <mxCell id="e_fR3UxcFMRkPrCtHw8A-16" style="edgeStyle=orthogonalEdgeStyle;rounded=0;orthogonalLoop=1;jettySize=auto;html=1;exitX=0.5;exitY=1;exitDx=0;exitDy=0;entryX=0;entryY=0.5;entryDx=0;entryDy=0;fontColor=#000000;" edge="1" parent="e_fR3UxcFMRkPrCtHw8A-1" source="e_fR3UxcFMRkPrCtHw8A-17" target="e_fR3UxcFMRkPrCtHw8A-4">
                    <mxGeometry relative="1" as="geometry"/>
                </mxCell>
                <mxCell id="e_fR3UxcFMRkPrCtHw8A-17" value="&quot;message: Item has been &lt;br&gt;successfully created&quot;" style="shape=parallelogram;perimeter=parallelogramPerimeter;whiteSpace=wrap;html=1;fixedSize=1;fillColor=#f9f7ed;strokeColor=#36393d;fontColor=#000000;" vertex="1" parent="e_fR3UxcFMRkPrCtHw8A-1">
                    <mxGeometry x="130" y="485" width="172.5" height="70" as="geometry"/>
                </mxCell>
                <mxCell id="AWZ0zkVUvCy7FH7u7wOK-3" value="" style="edgeStyle=orthogonalEdgeStyle;rounded=0;orthogonalLoop=1;jettySize=auto;html=1;labelBackgroundColor=none;fontColor=#000000;" edge="1" parent="e_fR3UxcFMRkPrCtHw8A-1" source="AWZ0zkVUvCy7FH7u7wOK-1" target="e_fR3UxcFMRkPrCtHw8A-9">
                    <mxGeometry relative="1" as="geometry"/>
                </mxCell>
                <mxCell id="AWZ0zkVUvCy7FH7u7wOK-1" value="productName,&lt;br&gt;price" style="shape=parallelogram;perimeter=parallelogramPerimeter;whiteSpace=wrap;html=1;fixedSize=1;fillColor=#f9f7ed;strokeColor=#36393d;fontColor=#000000;" vertex="1" parent="e_fR3UxcFMRkPrCtHw8A-1">
                    <mxGeometry x="325" y="190" width="150" height="60" as="geometry"/>
                </mxCell>
                <mxCell id="YTox6QU-j6ffOfBN5arq-0" value="&lt;font color=&quot;#ffffff&quot;&gt;FALSE&lt;/font&gt;" style="text;html=1;strokeColor=none;fillColor=none;align=center;verticalAlign=middle;whiteSpace=wrap;rounded=0;fontColor=#000000;" vertex="1" parent="e_fR3UxcFMRkPrCtHw8A-1">
                    <mxGeometry x="490" y="410" width="40" height="20" as="geometry"/>
                </mxCell>
                <mxCell id="1Nde7seOHPBkDnhqpOo8-0" value="&lt;font color=&quot;#ffffff&quot;&gt;TRUE&lt;/font&gt;" style="text;html=1;strokeColor=none;fillColor=none;align=center;verticalAlign=middle;whiteSpace=wrap;rounded=0;fontColor=#000000;" vertex="1" parent="e_fR3UxcFMRkPrCtHw8A-1">
                    <mxGeometry x="262.5" y="410" width="40" height="20" as="geometry"/>
                </mxCell>
            </root>
        </mxGraphModel>
    </diagram>
</mxfile>